<?xml version="1.0" standalone="no"?>
<!DOCTYPE svg PUBLIC "-//W3C//DTD SVG 20010904//EN"
 "http://www.w3.org/TR/2001/REC-SVG-20010904/DTD/svg10.dtd">
<svg version="1.0" xmlns="http://www.w3.org/2000/svg"
 width="900.000000pt" height="660.000000pt" viewBox="0 0 900.000000 660.000000"
 preserveAspectRatio="xMidYMid meet">

<g transform="translate(0.000000,660.000000) scale(0.100000,-0.100000)"
fill="#000000" stroke="none">
<path d="M4084 6584 c-278 -46 -535 -201 -702 -423 -96 -127 -175 -298 -202
-439 l-13 -62 -321 0 c-355 0 -422 -7 -513 -52 -74 -36 -169 -130 -207 -206
-58 -115 -56 -27 -56 -1859 l0 -1681 -24 -49 c-72 -142 -54 -335 49 -530 55
-104 112 -179 206 -268 74 -70 1042 -889 1132 -958 41 -31 56 -37 98 -37 119
0 207 107 178 215 -17 61 31 17 -754 682 -247 209 -472 403 -498 432 -53 57
-93 134 -103 197 -11 74 39 154 114 184 43 17 145 8 203 -17 24 -11 256 -172
514 -358 259 -186 488 -349 510 -362 113 -65 255 19 255 151 0 21 -142 568
-315 1215 -173 647 -315 1194 -315 1216 1 56 30 115 79 156 124 107 297 61
355 -92 9 -24 101 -360 204 -746 154 -572 193 -708 213 -729 50 -55 131 -69
204 -35 76 35 105 92 103 202 -1 87 14 131 66 182 44 44 129 72 184 62 90 -17
151 -72 188 -167 55 -146 183 -178 298 -76 51 44 71 93 62 150 -9 57 11 111
58 156 57 55 122 76 192 62 105 -22 165 -90 204 -235 11 -44 32 -99 45 -122
45 -76 153 -105 235 -63 65 33 74 56 80 205 5 123 7 134 33 173 15 23 46 54
69 69 35 24 52 28 108 28 57 0 74 -5 115 -30 79 -49 98 -91 175 -379 38 -141
78 -272 90 -290 39 -64 140 -93 213 -62 67 27 115 115 102 184 -20 114 -149
565 -178 622 -58 116 -203 239 -329 280 l-37 11 -3 1087 -3 1087 -23 64 c-62
171 -195 290 -356 320 -36 7 -193 11 -386 11 l-327 0 -22 92 c-78 316 -294
586 -584 730 -209 104 -441 140 -663 102z m369 -363 c233 -67 414 -229 502
-448 13 -32 27 -70 30 -85 l7 -28 -732 0 -732 0 5 28 c44 222 275 459 512 527
133 39 284 41 408 6z m-1303 -1201 c0 -231 3 -287 15 -318 31 -74 90 -114 165
-114 80 0 148 52 170 130 5 21 10 153 10 310 l0 272 750 0 750 0 0 -292 c0
-285 1 -294 23 -332 28 -49 62 -75 116 -87 53 -12 109 2 152 38 56 47 58 63
59 382 l1 291 329 0 330 0 32 -29 33 -29 2 -1084 3 -1083 -58 -32 c-31 -17
-82 -54 -113 -82 l-57 -51 -24 19 c-113 89 -308 131 -460 100 -90 -18 -211
-83 -278 -148 l-60 -59 -75 40 c-184 96 -413 88 -577 -22 l-43 -29 -31 117
c-260 969 -250 941 -368 1057 -108 107 -226 155 -382 155 -167 0 -330 -66
-445 -180 -80 -80 -123 -163 -146 -279 -23 -116 -16 -158 121 -667 63 -236
167 -625 231 -864 64 -239 125 -465 135 -503 13 -45 15 -65 7 -60 -7 4 -140
99 -297 212 -378 271 -438 298 -641 289 l-109 -6 0 1557 c0 1502 1 1557 19
1597 11 23 27 47 38 53 12 7 131 10 346 11 l327 0 0 -280z"/>
</g>
</svg>
